<svg viewBox="0 0 87 29" fill="none" xmlns="http://www.w3.org/2000/svg">
<path d="M62.0083 22.3572V0H66.5022V22.3572H62.0083Z" fill="#15192A"></path>
<path d="M9.63407 28.9983H0V6.64111H9.24666C13.7406 6.64111 16.3591 9.0903 16.3591 12.9214C16.3591 15.4013 14.6774 17.0039 13.5134 17.5375C14.9028 18.1652 16.6813 19.5779 16.6813 22.5624C16.6813 26.7373 13.7406 28.9983 9.63407 28.9983ZM8.89096 10.5355H4.4939V15.6852H8.89096C10.7981 15.6852 11.8652 14.6488 11.8652 13.1095C11.8652 11.5719 10.7981 10.5355 8.89096 10.5355ZM9.18151 19.6104H4.4939V25.1056H9.18151C11.2189 25.1056 12.1874 23.8503 12.1874 22.3418C12.1874 20.835 11.2171 19.6104 9.18151 19.6104Z" fill="#15192A"></path>
<path d="M30.3882 19.8293V28.9983H25.926V19.8293L19.0073 6.64111H23.8886L28.1888 15.6527L32.4239 6.64111H37.3052L30.3882 19.8293Z" fill="#15192A"></path>
<path d="M50.0457 28.9983H40.4116V6.64111H49.6583C54.1522 6.64111 56.7707 9.0903 56.7707 12.9214C56.7707 15.4013 55.089 17.0039 53.925 17.5375C55.3144 18.1652 57.093 19.5779 57.093 22.5624C57.093 26.7373 54.1522 28.9983 50.0457 28.9983ZM49.3026 10.5355H44.9055V15.6852H49.3026C51.2097 15.6852 52.2768 14.6488 52.2768 13.1095C52.2768 11.5719 51.2097 10.5355 49.3026 10.5355ZM49.5931 19.6104H44.9055V25.1056H49.5931C51.6305 25.1056 52.599 23.8503 52.599 22.3418C52.599 20.835 51.6305 19.6104 49.5931 19.6104Z" fill="#15192A"></path>
<path d="M80.986 10.5355V29H76.4921V10.5355H70.4785V6.64111H86.9996V10.5355H80.986Z" fill="#15192A"></path>
</svg>
